<svg width="119" height="37" viewBox="0 0 119 37" fill="none" xmlns="http://www.w3.org/2000/svg">
<path d="M3.45508 8.77344L3.08594 8.7207H3.01562C2.72266 8.7207 2.41797 8.60352 2.10156 8.36914C1.79688 8.13477 1.64453 7.71875 1.64453 7.12109C1.64453 6.52344 1.9668 5.84375 2.61133 5.08203C3.26758 4.32031 4.15234 3.62305 5.26562 2.99023C6.37891 2.3457 7.76172 1.81836 9.41406 1.4082C11.0781 0.998047 12.8301 0.792969 14.6699 0.792969C18.4316 0.792969 21.3672 1.53711 23.4766 3.02539C25.5977 4.50195 26.6582 6.42383 26.6582 8.79102C26.6582 10.2676 26.3301 11.7441 25.6738 13.2207C25.0176 14.6973 24.1387 16.0625 23.0371 17.3164C21.9355 18.5586 20.6406 19.7246 19.1523 20.8145C17.6641 21.8926 16.1055 22.8125 14.4766 23.5742C10.9609 25.1914 7.59766 26 4.38672 26C2.80469 26 1.80859 25.8711 1.39844 25.6133C1.24609 25.5312 1.09375 25.4082 0.941406 25.2441C0.800781 25.0684 0.689453 24.9512 0.607422 24.8926C0.384766 24.752 0.273438 24.4531 0.273438 23.9961C0.273438 23.5273 0.320312 23.1055 0.414062 22.7305C0.765625 21.4766 2.3418 18.7578 5.14258 14.5742C7.95508 10.3789 10.3047 6.99805 12.1914 4.43164C12.3203 4.25586 12.9824 4.12695 14.1777 4.04492C14.6699 4.04492 15.0098 4.08008 15.1973 4.15039C15.3848 4.2207 15.4785 4.34961 15.4785 4.53711C15.4785 4.71289 15.1738 5.22852 14.5645 6.08398C13.9551 6.92773 11.998 9.89844 8.69336 14.9961C5.38867 20.082 3.73633 22.6953 3.73633 22.8359C3.73633 22.9766 4.25195 23.0469 5.2832 23.0469C6.32617 23.0469 7.60352 22.8301 9.11523 22.3965C10.6387 21.9512 12.0684 21.3711 13.4043 20.6562C14.7402 19.9414 16.0176 19.1152 17.2363 18.1777C18.4551 17.2285 19.498 16.2617 20.3652 15.2773C22.2637 13.1211 23.2129 11.2051 23.2129 9.5293C23.2129 7.85352 22.4453 6.42969 20.9102 5.25781C19.3867 4.08594 17.2949 3.5 14.6348 3.5C12.8418 3.5 11.1484 3.79883 9.55469 4.39648C7.96094 4.99414 6.86523 5.52734 6.26758 5.99609C5.66992 6.46484 5.37109 6.78125 5.37109 6.94531C5.37109 7.03906 5.44141 7.08594 5.58203 7.08594L6.33789 6.94531C6.44336 6.94531 6.49609 6.96875 6.49609 7.01562C6.49609 7.0625 6.39648 7.14453 6.19727 7.26172C5.99805 7.37891 5.83398 7.50781 5.70508 7.64844C5.58789 7.77734 5.2832 7.99414 4.79102 8.29883C4.29883 8.5918 3.85352 8.75 3.45508 8.77344ZM30.1035 16.4199C32.8691 13.2793 35.2246 11.709 37.1699 11.709C37.6504 11.709 38.043 11.8555 38.3477 12.1484C38.6641 12.4297 38.8223 12.7988 38.8223 13.2559C38.8223 13.7129 38.4941 14.4805 37.8379 15.5586C37.1934 16.625 36.5957 17.5273 36.0449 18.2656C35.752 18.6406 35.418 18.8281 35.043 18.8281C34.6797 18.8281 34.3926 18.6934 34.1816 18.4238C33.9824 18.1543 33.8828 17.8379 33.8828 17.4746C33.8828 16.666 34.3164 15.752 35.1836 14.7324L35.1484 14.6973C34.7617 14.7324 33.8008 15.4941 32.2656 16.9824C30.7422 18.4707 29.4414 19.8066 28.3633 20.9902C27.2969 22.1621 26.1367 23.5918 24.8828 25.2793C24.5195 25.7832 24.209 26.0352 23.9512 26.0352C23.7051 26.0352 23.377 25.959 22.9668 25.8066C22.5449 25.6426 22.293 25.5254 22.2109 25.4551C22.1172 25.3848 22.0703 25.2676 22.0703 25.1035C22.0703 24.9395 22.1172 24.752 22.2109 24.541C22.3047 24.3184 22.4805 24.0078 22.7383 23.6094C22.9844 23.2109 23.3594 22.5664 23.8633 21.6758C24.3789 20.7852 25.1758 19.4375 26.2539 17.6328C27.332 15.8281 27.9766 14.7383 28.1875 14.3633C28.6328 13.5898 28.9961 13.0273 29.2773 12.6758C29.8047 12.0078 30.6953 11.6738 31.9492 11.6738C32.2305 11.6738 32.3711 11.8496 32.3711 12.2012C32.3711 12.752 31.8613 13.7891 30.8418 15.3125L30.1035 16.4199ZM51.8301 20.4805C52.0527 20.4805 52.1875 20.6504 52.2344 20.9902C52.2812 21.3301 52.3047 21.6816 52.3047 22.0449C52.3047 22.4082 52.2695 22.6602 52.1992 22.8008C51.8594 23.457 51.1152 24.2598 49.9668 25.209C48.8184 26.1465 47.7285 26.6152 46.6973 26.6152C46.0645 26.6152 45.4785 26.4219 44.9395 26.0352C44.4004 25.6602 44.1309 24.998 44.1309 24.0488C44.1309 23.0996 44.3828 22.168 44.8867 21.2539C41.9805 24.8984 39.7012 26.7207 38.0488 26.7207C37.3926 26.7207 36.8594 26.4863 36.4492 26.0176C36.0508 25.5488 35.8516 25.0684 35.8516 24.5762C35.8516 24.0723 35.9219 23.5566 36.0625 23.0293C36.2031 22.4902 36.3496 22.0098 36.502 21.5879C36.666 21.166 36.9004 20.6445 37.2051 20.0234C37.5215 19.4023 37.7559 18.9512 37.9082 18.6699C38.0605 18.3887 38.3008 17.9668 38.6289 17.4043C38.9688 16.8301 39.4082 16.0625 39.9473 15.1016C40.498 14.1406 40.9492 13.4316 41.3008 12.9746C41.6641 12.5059 42.0156 12.2715 42.3555 12.2715C42.6953 12.2598 42.9941 12.3945 43.252 12.6758C43.5098 12.957 43.6387 13.1855 43.6387 13.3613C43.6387 13.5371 43.2461 14.3281 42.4609 15.7344C40.1406 19.9297 38.9805 22.373 38.9805 23.0645C38.9805 23.2402 39.0449 23.3281 39.1738 23.3281C39.7363 23.3281 41.1367 22.1094 43.375 19.6719C45.6133 17.2344 46.9082 15.6758 47.2598 14.9961C47.6113 14.3047 47.9512 13.7246 48.2793 13.2559C48.6191 12.7871 48.8711 12.5 49.0352 12.3945C49.5391 12.0664 50.1895 11.8906 50.9863 11.8672C51.1152 11.8672 51.2148 11.873 51.2852 11.8848C51.3555 11.8965 51.4375 11.9961 51.5312 12.1836C51.625 12.3711 51.6719 12.5176 51.6719 12.623C51.5664 12.9512 51.0977 13.8242 50.2656 15.2422C49.4453 16.6602 48.9883 17.4629 48.8945 17.6504C47.5117 20.5098 46.8203 22.373 46.8203 23.2402C46.8203 23.7324 47.0078 23.9785 47.3828 23.9785C48.0625 23.8848 48.8828 23.3398 49.8438 22.3438C50.1953 21.9805 50.541 21.6113 50.8809 21.2363C51.2324 20.8613 51.4492 20.6445 51.5312 20.5859C51.6133 20.5156 51.7129 20.4805 51.8301 20.4805ZM56.6465 14.3281C57.7832 13.543 58.8965 12.9395 59.9863 12.5176C61.0762 12.0957 62.0195 11.8848 62.8164 11.8848C63.6133 11.8848 64.123 12.1133 64.3457 12.5703C64.8027 12.043 65.3711 11.7617 66.0508 11.7266C66.25 11.7148 66.4961 11.709 66.7891 11.709C67.082 11.709 67.2637 11.75 67.334 11.832C67.4043 11.9023 67.4688 12.043 67.5273 12.2539C67.5859 12.4648 67.6211 12.582 67.6328 12.6055C67.6445 12.6289 67.6504 12.6699 67.6504 12.7285C67.6504 12.7754 67.6211 12.8398 67.5625 12.9219C67.5039 12.9922 67.4336 13.0625 67.3516 13.1328C67.2812 13.2031 67.2402 13.2441 67.2285 13.2559C64.6387 16.9707 61.9902 21.207 59.2832 25.9648C62.0723 23.4922 64.5684 21.7168 66.7715 20.6387C66.9121 20.5684 67.0469 20.5332 67.1758 20.5332C67.3633 20.5332 67.4863 20.6562 67.5449 20.9023C67.6035 21.1367 67.6328 21.4766 67.6328 21.9219C67.6328 22.3672 67.6035 22.6426 67.5449 22.748C67.498 22.8535 67.2285 23.0645 66.7363 23.3809C66.2441 23.6973 65.6055 24.1074 64.8203 24.6113C64.0352 25.1152 63.2031 25.6719 62.3242 26.2812C60.2148 27.7461 58.4805 29.2871 57.1211 30.9043C55.3633 33.0254 54.1035 34.7363 53.3418 36.0371C53.0605 36.541 52.5859 36.793 51.918 36.793C50.5938 36.793 49.9316 36.166 49.9316 34.9121C49.9316 33.6348 50.5586 32.3281 51.8125 30.9922C52.75 29.9961 53.6113 29.1816 54.3965 28.5488C55.1816 27.916 55.6094 27.5586 55.6797 27.4766C56.5469 26.1758 57.7246 24.3301 59.2129 21.9395C57.9473 23.2637 56.7168 24.3184 55.5215 25.1035C54.3379 25.8887 53.4531 26.2812 52.8672 26.2812C51.0742 26.2812 50.1777 25.5137 50.1777 23.9785C50.1777 22.7598 50.4883 21.5293 51.1094 20.2871C51.7305 19.0449 52.5273 17.9375 53.5 16.9648C54.4727 15.9805 55.5215 15.1016 56.6465 14.3281ZM63.3438 13.8711C61.9844 14.1641 60.707 14.6504 59.5117 15.3301C58.3164 15.998 57.332 16.7188 56.5586 17.4922C55.7852 18.2539 55.1172 19.0391 54.5547 19.8477C53.5 21.3594 52.9727 22.5312 52.9727 23.3633C52.9727 23.5625 53.0195 23.6621 53.1133 23.6621C53.2188 23.6621 53.4414 23.5566 53.7812 23.3457C54.1328 23.1348 54.625 22.7773 55.2578 22.2734C55.8906 21.7578 56.5938 21.1484 57.3672 20.4453C59.1602 18.793 61.1523 16.6016 63.3438 13.8711ZM69.9707 21.166L69.7422 21.6406C69.7422 21.9805 70.2168 22.3086 71.166 22.625C72.127 22.9297 73.1758 23.082 74.3125 23.082C75.4609 23.082 76.7207 22.9121 78.0918 22.5723C79.4629 22.2324 80.6523 21.8164 81.6602 21.3242C82.6797 20.832 83.5176 20.3164 84.1738 19.7773C84.8418 19.2383 85.1758 18.7695 85.1758 18.3711C85.1758 17.8672 84.5898 17.3984 83.418 16.9648C82.2461 16.5312 80.541 16.0566 78.3027 15.541C76.0762 15.0137 74.4414 14.3516 73.3984 13.5547C72.3672 12.7578 71.8516 11.791 71.8516 10.6543C71.8516 9.50586 72.2617 8.41016 73.082 7.36719C73.9023 6.32422 74.9688 5.39844 76.2812 4.58984C77.6055 3.78125 79.0469 3.06055 80.6055 2.42773C83.8281 1.12695 86.8164 0.476562 89.5703 0.476562C90.625 0.476562 91.5566 0.570312 92.3652 0.757812C93.9121 1.12109 94.6855 1.60156 94.6855 2.19922C94.6855 2.79688 94.6328 3.20703 94.5273 3.42969C94.4219 3.64062 94.334 3.78125 94.2637 3.85156C94.2051 3.92188 94.123 3.99219 94.0176 4.0625C93.9238 4.13281 93.8535 4.18555 93.8066 4.2207C93.291 4.6543 91.8789 4.92383 89.5703 5.0293C88.7734 5.06445 88.3398 5.10547 88.2695 5.15234C88.1992 5.19922 88.1348 5.22266 88.0762 5.22266C88.0293 5.22266 87.9707 5.17578 87.9004 5.08203C87.8301 4.98828 87.7949 4.83594 87.7949 4.625C87.7949 4.41406 88.0234 4.02734 88.4805 3.46484C87.0508 3.54688 85.5215 3.875 83.8926 4.44922C82.2754 5.02344 80.8691 5.67383 79.6738 6.40039C78.4785 7.11523 77.4824 7.82422 76.6855 8.52734C75.8887 9.21875 75.4902 9.71094 75.4902 10.0039C75.4902 10.2852 75.5781 10.5195 75.7539 10.707C76.2461 11.2344 77.6113 11.7852 79.8496 12.3594C82.1699 12.957 83.7168 13.4375 84.4902 13.8008C85.2637 14.1641 85.9023 14.5098 86.4062 14.8379C86.9219 15.166 87.332 15.5 87.6367 15.8398C88.3516 16.6602 88.709 17.4922 88.709 18.3359C88.709 19.1797 88.4805 19.9707 88.0234 20.709C87.5781 21.4473 86.8984 22.1621 85.9844 22.8535C85.082 23.5449 84.0156 24.1602 82.7852 24.6992C80.0898 25.9062 76.8789 26.5098 73.1523 26.5098C70.4336 26.5098 68.6992 25.7891 67.9492 24.3477C67.75 23.9844 67.6504 23.6094 67.6504 23.2227C67.6504 22.8242 67.7383 22.4668 67.9141 22.1504C68.1016 21.834 68.3242 21.5938 68.582 21.4297C69.0859 21.1133 69.4434 20.9551 69.6543 20.9551C69.8652 20.9551 69.9707 21.0254 69.9707 21.166ZM90.625 26.4219L89.5 26.1758C89.1602 26.1406 88.8789 25.9238 88.6562 25.5254C88.5977 25.4199 88.5625 25.3555 88.5508 25.332C88.5273 25.3086 88.5156 25.2793 88.5156 25.2441C88.5156 25.209 88.5273 25.1621 88.5508 25.1035C88.5742 25.0332 88.6094 24.9453 88.6562 24.8398C88.7031 24.7227 88.7441 24.6055 88.7793 24.4883C89.0254 23.6562 91.082 19.7422 94.9492 12.7461C98.8164 5.75 100.838 2.14648 101.014 1.93555C101.201 1.71289 101.336 1.55469 101.418 1.46094C101.512 1.35547 101.611 1.26758 101.717 1.19727C101.834 1.12695 101.916 1.08008 101.963 1.05664C102.021 1.0332 102.127 0.998047 102.279 0.951172C102.443 0.892578 102.607 0.833984 102.771 0.775391C102.947 0.716797 103.129 0.640625 103.316 0.546875C103.504 0.441406 103.633 0.371094 103.703 0.335938C103.773 0.289062 103.861 0.265625 103.967 0.265625C104.084 0.265625 104.189 0.318359 104.283 0.423828C104.389 0.529297 104.441 0.664063 104.441 0.828125V0.951172C104.383 1.17383 102.854 3.95117 99.8535 9.2832C96.8652 14.6152 95.2363 17.5332 94.9668 18.0371C95.8809 17.6738 97.2285 16.7773 99.0098 15.3477C100.791 13.918 101.688 12.9688 101.699 12.5C101.723 12.0312 101.887 11.6914 102.191 11.4805C102.496 11.2695 102.824 11.1641 103.176 11.1641C103.539 11.1641 103.844 11.2871 104.09 11.5332C104.348 11.7676 104.471 12.1602 104.459 12.7109C104.447 13.25 104.143 13.9414 103.545 14.7852C102.947 15.6172 102.232 16.3906 101.4 17.1055C99.6074 18.6289 98.1133 19.6367 96.918 20.1289C97.8672 22.6953 98.957 23.9785 100.188 23.9785C100.855 23.8848 101.676 23.3398 102.648 22.3438C103.012 21.9805 103.363 21.6172 103.703 21.2539C104.043 20.8789 104.248 20.6562 104.318 20.5859C104.4 20.5156 104.512 20.4805 104.652 20.4805C104.875 20.4805 105.01 20.6504 105.057 20.9902C105.104 21.3301 105.127 21.6816 105.127 22.0449C105.127 22.4082 105.092 22.6602 105.021 22.8008C104.682 23.457 103.938 24.2598 102.789 25.209C101.641 26.1465 100.551 26.6152 99.5195 26.6152C98.7812 26.6152 98.1953 26.4746 97.7617 26.1934C97.3281 25.9121 96.9883 25.6777 96.7422 25.4902C96.4961 25.3027 96.2441 25.0508 95.9863 24.7344C95.7285 24.4062 95.5117 24.1367 95.3359 23.9258C95.1719 23.7148 94.9785 23.4219 94.7559 23.0469C94.5449 22.6719 94.3926 22.4082 94.2988 22.2559C94.2051 22.0918 94.0645 21.834 93.877 21.4824C93.7012 21.1191 93.6016 20.9199 93.5781 20.8848C93.3672 21.3184 93.1328 21.7871 92.875 22.291C92.6172 22.7949 92.3828 23.2637 92.1719 23.6973C91.9609 24.1309 91.7676 24.5293 91.5918 24.8926C91.416 25.2441 91.2695 25.5371 91.1523 25.7715C91.0469 26.0059 90.9883 26.1289 90.9766 26.1406C90.8945 26.3281 90.7773 26.4219 90.625 26.4219ZM108.924 31.8359C108.865 31.8945 108.684 32.1875 108.379 32.7148C108.086 33.2539 107.77 33.793 107.43 34.332C107.09 34.8828 106.668 35.4043 106.164 35.8965C105.672 36.3887 105.256 36.6523 104.916 36.6875C104.588 36.7344 104.377 36.7578 104.283 36.7578C103.205 36.7578 102.666 36.2129 102.666 35.123C102.666 33.8457 103.328 32.3516 104.652 30.6406C105.156 29.9961 105.789 29.2988 106.551 28.5488C107.312 27.8105 107.729 27.3887 107.799 27.2832C107.869 27.1895 108.748 25.5488 110.436 22.3613C109.311 23.5918 108.268 24.5938 107.307 25.3672C106.346 26.1289 105.42 26.5566 104.529 26.6504H104.406C103.949 26.6504 103.498 26.498 103.053 26.1934C102.607 25.9004 102.385 25.3789 102.385 24.6289C102.385 23.5156 102.684 22.4375 103.281 21.3945C103.492 21.0312 103.855 20.416 104.371 19.5488C104.898 18.6816 105.385 17.8438 105.83 17.0352C106.252 16.3906 106.686 15.6406 107.131 14.7852C107.576 13.9297 107.916 13.3203 108.15 12.957C108.385 12.582 108.607 12.3945 108.818 12.3945C109.029 12.3945 109.299 12.5293 109.627 12.7988C109.967 13.0566 110.137 13.3672 110.137 13.7305C110.137 14.0938 109.369 15.6699 107.834 18.459C106.299 21.248 105.531 22.8359 105.531 23.2227C105.531 23.3164 105.578 23.3633 105.672 23.3633C105.988 23.3633 106.686 22.918 107.764 22.0273C108.854 21.125 110.055 19.9707 111.367 18.5645C112.832 17.0059 113.98 15.582 114.812 14.293C114.918 14.1289 115 14.0059 115.059 13.9238C115.129 13.8301 115.211 13.7129 115.305 13.5723C115.41 13.4199 115.492 13.3027 115.551 13.2207C115.621 13.1387 115.697 13.0449 115.779 12.9395C115.873 12.8223 115.955 12.7344 116.025 12.6758C116.096 12.6172 116.172 12.5586 116.254 12.5C116.383 12.3828 116.523 12.3242 116.676 12.3242C116.84 12.3242 117.08 12.3594 117.396 12.4297C117.725 12.5 117.918 12.5762 117.977 12.6582C118.047 12.7402 118.117 12.8164 118.188 12.8867C118.305 13.0156 118.363 13.1387 118.363 13.2559C118.363 13.3613 118.316 13.5078 118.223 13.6953C118.129 13.8711 117.584 14.7969 116.588 16.4727C113.658 21.418 111.643 25.0273 110.541 27.3008C112.322 25.8008 114.83 23.5801 118.064 20.6387C118.193 20.5332 118.322 20.4805 118.451 20.4805C118.814 20.4805 118.996 21.0371 118.996 22.1504C118.996 22.4785 118.938 22.6953 118.82 22.8008C115.316 25.4961 112.018 28.5078 108.924 31.8359Z" fill="url(#paint0_linear)"/>
<defs>
<linearGradient id="paint0_linear" x1="-7.55086" y1="15.0319" x2="118.314" y2="15.0319" gradientUnits="userSpaceOnUse">
<stop stop-color="#00BFFF"/>
<stop offset="1" stop-color="#00FFFF"/>
</linearGradient>
</defs>
</svg>
